<svg width="20" height="20" viewBox="0 0 20 20" fill="none" xmlns="http://www.w3.org/2000/svg">
<g clip-path="url(#clip0_610_14)">
<path d="M11.0769 7.50004C11.0769 9.57502 9.42769 11.25 7.38461 11.25C5.34154 11.25 3.69231 9.57502 3.69231 7.50004C3.69231 5.42506 5.34154 3.75008 7.38461 3.75008C9.42769 3.75008 11.0769 5.42506 11.0769 7.50004ZM14.7692 20H0V17.5C0 14.7376 3.31077 12.5001 7.38461 12.5001C11.4585 12.5001 14.7692 14.7376 14.7692 17.5V20ZM20 9.9999V12.4999L16.2308 12.5001L15 10.0001L20 9.9999ZM20 4.99995V7.49992L13.5385 7.49992L12.5 5.00016L20 4.99995ZM20 0V2.49997L11.25 2.50018L10 0H20Z" fill="white"/>
</g>
<defs>
<clipPath id="clip0_610_14">
<rect width="20" height="20" fill="white"/>
</clipPath>
</defs>
</svg>
