<svg width="36" height="32" viewBox="0 0 36 32" fill="none" xmlns="http://www.w3.org/2000/svg">
<path d="M18.7702 17.9897C18.8368 16.6765 19.4234 15.5208 20.3105 14.6999C21.2419 13.8522 22.4171 13.392 23.6286 13.4005C24.9061 13.4005 26.0757 13.8927 26.9485 14.6999C27.8338 15.5208 28.4221 16.6785 28.4887 17.9897C28.5571 19.3402 28.0623 20.5943 27.1914 21.5236C26.2327 22.5242 24.9553 23.0765 23.6304 23.0631C22.3043 23.0774 21.0254 22.525 20.0658 21.5236C19.1967 20.5943 18.7001 19.3402 18.7702 17.9897Z" fill="white"/>
<path d="M11.0272 20.65C11.0362 21.1619 11.1873 22.16 11.4104 22.9416C11.8966 24.6225 12.7121 26.1672 13.8 27.4678C14.9662 28.872 16.3907 29.9905 17.98 30.7497C19.7087 31.5841 21.5788 32.01 23.4681 31.9998C25.3592 32.0024 27.2297 31.5697 28.9581 30.73C30.5452 29.9616 31.9678 28.8383 33.1345 27.4323C34.2201 26.1276 35.0342 24.5807 35.5204 22.8983C35.7578 22.0765 35.9087 21.2277 35.9703 20.3684C36.1399 17.8839 35.5801 15.405 34.3724 13.2928C33.6353 12.0032 32.6939 10.8678 31.5924 9.93997L31.5942 9.93801L20.3498 0.489975L20.321 0.462413C19.5815 -0.155775 18.3399 -0.153806 17.5302 0.466351C16.7078 1.09438 16.6161 2.13191 17.343 2.78948L17.3412 2.79144L22.0304 6.96716L7.73789 6.98488H7.71629C6.5359 6.98488 5.40048 7.83538 5.17556 8.90638C4.94524 9.99904 5.74777 10.9047 6.97675 10.9086L6.97495 10.9145L14.2211 10.8988L1.28708 21.7584L1.2385 21.7997C0.020313 22.8215 -0.373753 24.5205 0.392786 25.5974C1.17372 26.6921 2.82916 26.6921 4.06354 25.6014L11.1207 19.2837C11.1225 19.2837 11.02 20.1361 11.0272 20.65ZM29.1614 23.5047C27.7075 25.1269 25.6742 26.0463 23.4699 26.0503C21.2639 26.0542 19.2306 25.1427 17.7749 23.5244C17.0867 22.7706 16.5563 21.8625 16.2202 20.8626C15.9028 19.9118 15.7805 18.8962 15.8621 17.8878C15.9413 16.8936 16.2094 15.9447 16.6431 15.0883C17.0677 14.2437 17.6543 13.4837 18.3741 12.836C19.8178 11.5658 21.6174 10.8789 23.4699 10.8909C25.3207 10.8746 27.1201 11.5559 28.5658 12.8203C29.2838 13.4621 29.8704 14.22 30.295 15.0627C30.7269 15.921 30.9968 16.866 31.076 17.8603C31.1572 18.8684 31.0355 19.8838 30.7197 20.835C30.3802 21.8363 29.8489 22.7465 29.1614 23.5047Z" fill="white"/>
</svg>
