<svg width="20" height="20" viewBox="0 0 20 20" fill="none" xmlns="http://www.w3.org/2000/svg">
<path fill-rule="evenodd" clip-rule="evenodd" d="M9.02941 0H11.0241C15.9813 0 20 4.21379 20 9.41176C20 14.6097 15 18.125 11.0241 18.8235L1.73668 20C-0.466556 20 0.0534788 16.9507 0.0534788 14.6405V9.41176C0.0534788 4.21379 4.07214 0 9.02941 0ZM6.03743 12.2876C5.62433 12.2876 5.28944 11.9364 5.28944 11.5033C5.28944 11.0701 5.62433 10.719 6.03743 10.719H10.0267C10.4398 10.719 10.7747 11.0701 10.7747 11.5033C10.7747 11.9364 10.4398 12.2876 10.0267 12.2876H6.03743ZM6.03743 8.10458C5.62433 8.10458 5.28944 7.75343 5.28944 7.32026C5.28944 6.8871 5.62433 6.53595 6.03743 6.53595H14.016C14.4291 6.53595 14.764 6.8871 14.764 7.32026C14.764 7.75343 14.4291 8.10458 14.016 8.10458H6.03743Z" fill="white"/>
</svg>
