<svg width="32" height="12" viewBox="0 0 32 12" fill="none" xmlns="http://www.w3.org/2000/svg">
<path d="M28.9693 3.36592C28.9162 2.86853 28.6922 2.48125 28.2973 2.20408C27.9062 1.92691 27.3974 1.78832 26.7709 1.78832C26.3305 1.78832 25.9527 1.85477 25.6376 1.98766C25.3224 2.12055 25.0813 2.3009 24.9143 2.52871C24.7472 2.75653 24.6618 3.01661 24.658 3.30897C24.658 3.55197 24.713 3.7627 24.8231 3.94115C24.937 4.1196 25.0908 4.27148 25.2845 4.39677C25.4781 4.51827 25.6926 4.62079 25.928 4.70432C26.1634 4.78785 26.4007 4.85809 26.64 4.91505L27.7335 5.18842C28.1739 5.29094 28.5972 5.42952 29.0035 5.60418C29.4136 5.77883 29.78 5.99905 30.1027 6.26483C30.4292 6.53061 30.6874 6.85145 30.8773 7.22734C31.0671 7.60323 31.162 8.04366 31.162 8.54865C31.162 9.23208 30.9874 9.83389 30.6381 10.3541C30.2888 10.8704 29.7838 11.2748 29.1231 11.5672C28.4663 11.8557 27.6708 12 26.7368 12C25.8293 12 25.0415 11.8595 24.3732 11.5785C23.7088 11.2976 23.1886 10.8875 22.8127 10.3484C22.4406 9.80921 22.2394 9.15235 22.209 8.37779H24.2878C24.3182 8.78405 24.4435 9.12198 24.6637 9.39155C24.8839 9.66113 25.1706 9.86236 25.5237 9.99525C25.8806 10.1281 26.2792 10.1946 26.7197 10.1946C27.1791 10.1946 27.5816 10.1262 27.9271 9.98956C28.2764 9.84908 28.5498 9.65543 28.7472 9.40864C28.9447 9.15805 29.0453 8.86569 29.0491 8.53156C29.0453 8.22781 28.9561 7.97722 28.7814 7.77978C28.6067 7.57855 28.3618 7.41149 28.0467 7.2786C27.7354 7.14191 27.3709 7.02041 26.9532 6.9141L25.6262 6.57238C24.6656 6.32558 23.9062 5.95159 23.3481 5.4504C22.7937 4.94542 22.5165 4.27527 22.5165 3.43996C22.5165 2.75273 22.7026 2.15093 23.0747 1.63455C23.4506 1.11818 23.9612 0.717608 24.6067 0.432843C25.2522 0.144281 25.9831 0 26.7994 0C27.6271 0 28.3523 0.144281 28.975 0.432843C29.6015 0.717608 30.0932 1.11438 30.4501 1.62316C30.807 2.12814 30.9912 2.70907 31.0026 3.36592H28.9693Z" fill="white"/>
<path d="M18.5543 3.36592C18.5011 2.86853 18.2771 2.48125 17.8823 2.20408C17.4912 1.92691 16.9824 1.78832 16.3559 1.78832C15.9155 1.78832 15.5377 1.85477 15.2225 1.98766C14.9074 2.12055 14.6663 2.3009 14.4992 2.52871C14.3322 2.75653 14.2467 3.01661 14.2429 3.30897C14.2429 3.55197 14.298 3.7627 14.4081 3.94115C14.522 4.1196 14.6758 4.27148 14.8694 4.39677C15.0631 4.51827 15.2776 4.62079 15.513 4.70432C15.7484 4.78785 15.9857 4.85809 16.2249 4.91505L17.3184 5.18842C17.7589 5.29094 18.1822 5.42952 18.5885 5.60418C18.9985 5.77883 19.3649 5.99905 19.6877 6.26483C20.0142 6.53061 20.2724 6.85145 20.4622 7.22734C20.6521 7.60323 20.747 8.04366 20.747 8.54865C20.747 9.23208 20.5723 9.83389 20.223 10.3541C19.8737 10.8704 19.3687 11.2748 18.7081 11.5672C18.0512 11.8557 17.2558 12 16.3217 12C15.4143 12 14.6264 11.8595 13.9582 11.5785C13.2937 11.2976 12.7735 10.8875 12.3976 10.3484C12.0256 9.80921 11.8243 9.15235 11.7939 8.37779H13.8727C13.9031 8.78405 14.0284 9.12198 14.2486 9.39155C14.4689 9.66113 14.7555 9.86236 15.1086 9.99525C15.4655 10.1281 15.8642 10.1946 16.3046 10.1946C16.7641 10.1946 17.1665 10.1262 17.5121 9.98956C17.8614 9.84908 18.1347 9.65543 18.3322 9.40864C18.5296 9.15805 18.6302 8.86569 18.634 8.53156C18.6302 8.22781 18.541 7.97722 18.3664 7.77978C18.1917 7.57855 17.9468 7.41149 17.6317 7.2786C17.3203 7.14191 16.9558 7.02041 16.5382 6.9141L15.2111 6.57238C14.2505 6.32558 13.4912 5.95159 12.933 5.4504C12.3787 4.94542 12.1015 4.27527 12.1015 3.43996C12.1015 2.75273 12.2875 2.15093 12.6596 1.63455C13.0355 1.11818 13.5462 0.717608 14.1917 0.432843C14.8371 0.144281 15.568 0 16.3844 0C17.2121 0 17.9373 0.144281 18.56 0.432843C19.1865 0.717608 19.6782 1.11438 20.0351 1.62316C20.392 2.12814 20.5761 2.70907 20.5875 3.36592H18.5543Z" fill="white"/>
<path d="M10.2801 4.09492H8.15002C8.08927 3.74561 7.97726 3.43617 7.81399 3.16659C7.65073 2.89321 7.44759 2.6616 7.20459 2.47176C6.96159 2.28192 6.68442 2.13953 6.37307 2.04461C6.06553 1.9459 5.7333 1.89654 5.37639 1.89654C4.74231 1.89654 4.18037 2.056 3.69057 2.37494C3.20078 2.69008 2.81729 3.1533 2.54012 3.76459C2.26294 4.37209 2.12436 5.11438 2.12436 5.99146C2.12436 6.88372 2.26294 7.6355 2.54012 8.2468C2.82109 8.8543 3.20457 9.31372 3.69057 9.62506C4.18037 9.93261 4.74041 10.0864 5.3707 10.0864C5.72001 10.0864 6.04654 10.0408 6.35029 9.94969C6.65784 9.85477 6.93311 9.71618 7.17611 9.53394C7.42291 9.35169 7.62984 9.12767 7.79691 8.86189C7.96777 8.59611 8.08547 8.29236 8.15002 7.95064L10.2801 7.96203C10.2003 8.51637 10.0276 9.03655 9.76179 9.52254C9.49981 10.0085 9.15619 10.4376 8.73094 10.8097C8.30569 11.178 7.8083 11.4665 7.23876 11.6754C6.66923 11.8804 6.03705 11.9829 5.34222 11.9829C4.31706 11.9829 3.40201 11.7456 2.59707 11.271C1.79213 10.7964 1.15805 10.1111 0.69483 9.215C0.23161 8.31894 0 7.24442 0 5.99146C0 4.73469 0.233508 3.66018 0.700525 2.76792C1.16754 1.87186 1.80352 1.18652 2.60846 0.711912C3.4134 0.237304 4.32465 0 5.34222 0C5.99149 0 6.59519 0.0911247 7.15333 0.273374C7.71148 0.455624 8.20887 0.723304 8.64551 1.07641C9.08215 1.42572 9.44096 1.85477 9.72193 2.36355C10.0067 2.86853 10.1927 3.44566 10.2801 4.09492Z" fill="white"/>
</svg>
