<svg width="32" height="32" viewBox="0 0 32 32" fill="none" xmlns="http://www.w3.org/2000/svg">
<path d="M20.9092 10.6651C22.2958 10.6235 23.6116 10.0434 24.5777 9.04789C25.5438 8.05238 26.0841 6.71973 26.0841 5.33253C26.0841 3.94533 25.5438 2.61268 24.5777 1.61718C23.6116 0.621675 22.2958 0.0416134 20.9092 0H10.2425C8.85595 0.0416134 7.54011 0.621675 6.57404 1.61718C5.60796 2.61268 5.06763 3.94533 5.06763 5.33253C5.06763 6.71973 5.60796 8.05238 6.57404 9.04789C7.54011 10.0434 8.85595 10.6235 10.2425 10.6651C8.84383 10.6893 7.51061 11.2619 6.53004 12.2596C5.54946 13.2574 5 14.6003 5 15.9992C5 17.3981 5.54946 18.741 6.53004 19.7388C7.51061 20.7365 8.84383 21.3091 10.2425 21.3333C8.85066 21.3674 7.52728 21.9443 6.55492 22.9408C5.58255 23.9373 5.03827 25.2744 5.03827 26.6667C5.03827 28.0589 5.58255 29.3961 6.55492 30.3925C7.52728 31.389 8.85066 31.9659 10.2425 32C11.657 31.9992 13.0133 31.4368 14.0134 30.4364C15.0134 29.436 15.5754 28.0796 15.5759 26.6651V10.6651H20.9092Z" fill="white"/>
<path d="M20.9076 21.3327C23.8531 21.3327 26.2409 18.9449 26.2409 15.9993C26.2409 13.0538 23.8531 10.666 20.9076 10.666C17.962 10.666 15.5742 13.0538 15.5742 15.9993C15.5742 18.9449 17.962 21.3327 20.9076 21.3327Z" fill="white"/>
</svg>
