<svg width="19" height="12" viewBox="0 0 19 12" fill="none" xmlns="http://www.w3.org/2000/svg">
<path d="M16.0119 3.36592C15.9587 2.86853 15.7347 2.48125 15.3398 2.20408C14.9487 1.92691 14.4399 1.78832 13.8135 1.78832C13.373 1.78832 12.9952 1.85477 12.6801 1.98766C12.3649 2.12055 12.1238 2.3009 11.9568 2.52871C11.7897 2.75653 11.7043 3.01661 11.7005 3.30897C11.7005 3.55197 11.7555 3.7627 11.8656 3.94115C11.9795 4.1196 12.1333 4.27148 12.327 4.39677C12.5206 4.51827 12.7351 4.62079 12.9705 4.70432C13.206 4.78785 13.4433 4.85809 13.6825 4.91505L14.776 5.18842C15.2164 5.29094 15.6398 5.42952 16.046 5.60418C16.4561 5.77883 16.8225 5.99905 17.1452 6.26483C17.4718 6.53061 17.73 6.85145 17.9198 7.22734C18.1097 7.60323 18.2046 8.04366 18.2046 8.54865C18.2046 9.23208 18.0299 9.83389 17.6806 10.3541C17.3313 10.8704 16.8263 11.2748 16.1656 11.5672C15.5088 11.8557 14.7133 12 13.7793 12C12.8718 12 12.084 11.8595 11.4157 11.5785C10.7512 11.2976 10.2311 10.8875 9.85517 10.3484C9.48308 9.80921 9.28184 9.15235 9.25146 8.37779H11.3303C11.3606 8.78405 11.4859 9.12198 11.7062 9.39155C11.9264 9.66113 12.2131 9.86236 12.5662 9.99525C12.9231 10.1281 13.3218 10.1946 13.7622 10.1946C14.2216 10.1946 14.6241 10.1262 14.9696 9.98956C15.3189 9.84908 15.5923 9.65543 15.7897 9.40864C15.9872 9.15805 16.0878 8.86569 16.0916 8.53156C16.0878 8.22781 15.9986 7.97722 15.8239 7.77978C15.6493 7.57855 15.4044 7.41149 15.0892 7.2786C14.7779 7.14191 14.4134 7.02041 13.9957 6.9141L12.6687 6.57238C11.7081 6.32558 10.9487 5.95159 10.3905 5.4504C9.83619 4.94542 9.55901 4.27527 9.55901 3.43996C9.55901 2.75273 9.74506 2.15093 10.1172 1.63455C10.4931 1.11818 11.0037 0.717608 11.6492 0.432843C12.2947 0.144281 13.0256 0 13.8419 0C14.6697 0 15.3949 0.144281 16.0176 0.432843C16.6441 0.717608 17.1358 1.11438 17.4927 1.62316C17.8496 2.12814 18.0337 2.70907 18.0451 3.36592H16.0119Z" fill="white"/>
<path d="M5.2853 0.15918H7.3812V8.36041C7.3774 9.11219 7.21793 9.75956 6.90279 10.3025C6.58764 10.8417 6.1472 11.2574 5.58146 11.5498C5.01952 11.8383 4.36455 11.9826 3.61656 11.9826C2.93312 11.9826 2.31802 11.8611 1.77126 11.6181C1.2283 11.3713 0.797352 11.0068 0.478411 10.5246C0.15947 10.0424 0 9.44252 0 8.72491H2.10159C2.10539 9.04005 2.17373 9.31153 2.30662 9.53934C2.44331 9.76715 2.63126 9.94181 2.87047 10.0633C3.10967 10.1848 3.38495 10.2456 3.69629 10.2456C4.03422 10.2456 4.32089 10.1753 4.5563 10.0348C4.7917 9.89055 4.97016 9.67793 5.09166 9.39696C5.21696 9.11599 5.28151 8.77048 5.2853 8.36041V0.15918Z" fill="white"/>
</svg>
