<svg width="24" height="24" viewBox="0 0 24 24" fill="none" xmlns="http://www.w3.org/2000/svg">
<g clip-path="url(#clip0_532_29)">
<path d="M22.2236 0C23.2025 5.63355e-05 23.9998 0.774501 24 1.72949V22.2686C23.9998 23.2243 23.2024 23.9999 22.2236 24H1.77148C0.794289 24 0.000217553 23.2244 0 22.2686V1.72949C0.000170383 0.774467 0.794259 0 1.77148 0H22.2236ZM3.55859 20.4512H7.11816V8.99805H3.55859V20.4512ZM16.1807 8.71191C14.4488 8.71191 13.2874 9.66205 12.8125 10.5625H12.7646V8.99707H9.35059V20.4512H12.9072V14.7852C12.9072 13.2912 13.1916 11.8438 15.0439 11.8438C16.8687 11.844 16.8936 13.5521 16.8936 14.8809V20.4512H20.4502V14.168C20.4501 11.0845 19.7849 8.71204 16.1807 8.71191ZM5.33887 3.30371C4.19818 3.3039 3.27454 4.22908 3.27441 5.36719C3.27441 6.50643 4.1981 7.43145 5.33887 7.43164C6.4768 7.43164 7.40234 6.50655 7.40234 5.36719C7.40221 4.22896 6.47672 3.30371 5.33887 3.30371Z" fill="#9F93B8"/>
</g>
<defs>
<clipPath id="clip0_532_29">
<rect width="24" height="24" fill="white"/>
</clipPath>
</defs>
</svg>
