<svg width="187" height="32" viewBox="0 0 187 32" fill="none" xmlns="http://www.w3.org/2000/svg">
<path fill-rule="evenodd" clip-rule="evenodd" d="M6.82287 8.18603C4.63538 9.88608 0.145052 14.3665 0.00322456 19.8008C-0.143965 25.4426 4.75783 32.3535 12.6611 31.9859C21.5659 31.5718 25.1907 24.9534 24.9923 19.3198C24.8279 14.6519 21.3158 11.3673 19.56 9.72526C19.2761 9.45976 19.0381 9.23719 18.8676 9.05866L9.72124 0L9.8553 11.1628L6.82287 8.18603ZM10.1306 16.6455C9.24454 17.3355 7.57479 18.8973 7.51745 21.1028C7.4578 23.3924 9.44328 26.197 12.6445 26.0479C16.2514 25.8798 17.7196 23.1938 17.6393 20.9076C17.5727 19.0131 16.1501 17.6802 15.4389 17.0137C15.3239 16.9059 15.2276 16.8156 15.1585 16.7432L11.4537 13.0668L11.5113 17.459L10.1306 16.6455Z" fill="url(#paint0_linear_532_128)"/>
<path d="M40.512 8.248C42.272 8.248 43.816 8.592 45.144 9.28C46.488 9.968 47.52 10.952 48.24 12.232C48.976 13.496 49.344 14.968 49.344 16.648C49.344 18.328 48.976 19.8 48.24 21.064C47.52 22.312 46.488 23.28 45.144 23.968C43.816 24.656 42.272 25 40.512 25H34.656V8.248H40.512ZM40.392 22.144C42.152 22.144 43.512 21.664 44.472 20.704C45.432 19.744 45.912 18.392 45.912 16.648C45.912 14.904 45.432 13.544 44.472 12.568C43.512 11.576 42.152 11.08 40.392 11.08H38.016V22.144H40.392ZM64.2191 18.064C64.2191 18.544 64.1871 18.976 64.1231 19.36H54.4031C54.4831 20.32 54.8191 21.072 55.4111 21.616C56.0031 22.16 56.7311 22.432 57.5951 22.432C58.8431 22.432 59.7311 21.896 60.2591 20.824H63.8831C63.4991 22.104 62.7631 23.16 61.6751 23.992C60.5871 24.808 59.2511 25.216 57.6671 25.216C56.3871 25.216 55.2351 24.936 54.2111 24.376C53.2031 23.8 52.4111 22.992 51.8351 21.952C51.2751 20.912 50.9951 19.712 50.9951 18.352C50.9951 16.976 51.2751 15.768 51.8351 14.728C52.3951 13.688 53.1791 12.888 54.1871 12.328C55.1951 11.768 56.3551 11.488 57.6671 11.488C58.9311 11.488 60.0591 11.76 61.0511 12.304C62.0591 12.848 62.8351 13.624 63.3791 14.632C63.9391 15.624 64.2191 16.768 64.2191 18.064ZM60.7391 17.104C60.7231 16.24 60.4111 15.552 59.8031 15.04C59.1951 14.512 58.4511 14.248 57.5711 14.248C56.7391 14.248 56.0351 14.504 55.4591 15.016C54.8991 15.512 54.5551 16.208 54.4271 17.104H60.7391ZM74.0396 11.512C75.6236 11.512 76.9036 12.016 77.8796 13.024C78.8556 14.016 79.3436 15.408 79.3436 17.2V25H75.9836V17.656C75.9836 16.6 75.7196 15.792 75.1916 15.232C74.6636 14.656 73.9436 14.368 73.0316 14.368C72.1036 14.368 71.3676 14.656 70.8236 15.232C70.2956 15.792 70.0316 16.6 70.0316 17.656V25H66.6716V11.704H70.0316V13.36C70.4796 12.784 71.0476 12.336 71.7356 12.016C72.4396 11.68 73.2076 11.512 74.0396 11.512ZM84.2428 10.12C83.6508 10.12 83.1548 9.936 82.7548 9.568C82.3708 9.184 82.1788 8.712 82.1788 8.152C82.1788 7.592 82.3708 7.128 82.7548 6.76C83.1548 6.376 83.6508 6.184 84.2428 6.184C84.8348 6.184 85.3228 6.376 85.7068 6.76C86.1068 7.128 86.3068 7.592 86.3068 8.152C86.3068 8.712 86.1068 9.184 85.7068 9.568C85.3228 9.936 84.8348 10.12 84.2428 10.12ZM85.8988 11.704V25H82.5388V11.704H85.8988ZM94.3065 25.216C93.2185 25.216 92.2425 25.024 91.3785 24.64C90.5145 24.24 89.8265 23.704 89.3145 23.032C88.8185 22.36 88.5465 21.616 88.4985 20.8H91.8825C91.9465 21.312 92.1945 21.736 92.6265 22.072C93.0745 22.408 93.6265 22.576 94.2825 22.576C94.9225 22.576 95.4185 22.448 95.7705 22.192C96.1385 21.936 96.3225 21.608 96.3225 21.208C96.3225 20.776 96.0985 20.456 95.6505 20.248C95.2185 20.024 94.5225 19.784 93.5625 19.528C92.5705 19.288 91.7545 19.04 91.1145 18.784C90.4905 18.528 89.9465 18.136 89.4825 17.608C89.0345 17.08 88.8105 16.368 88.8105 15.472C88.8105 14.736 89.0185 14.064 89.4345 13.456C89.8665 12.848 90.4745 12.368 91.2585 12.016C92.0585 11.664 92.9945 11.488 94.0665 11.488C95.6505 11.488 96.9145 11.888 97.8585 12.688C98.8025 13.472 99.3225 14.536 99.4185 15.88H96.2025C96.1545 15.352 95.9305 14.936 95.5305 14.632C95.1465 14.312 94.6265 14.152 93.9705 14.152C93.3625 14.152 92.8905 14.264 92.5545 14.488C92.2345 14.712 92.0745 15.024 92.0745 15.424C92.0745 15.872 92.2985 16.216 92.7465 16.456C93.1945 16.68 93.8905 16.912 94.8345 17.152C95.7945 17.392 96.5865 17.64 97.2105 17.896C97.8345 18.152 98.3705 18.552 98.8185 19.096C99.2825 19.624 99.5225 20.328 99.5385 21.208C99.5385 21.976 99.3225 22.664 98.8905 23.272C98.4745 23.88 97.8665 24.36 97.0665 24.712C96.2825 25.048 95.3625 25.216 94.3065 25.216ZM116.655 25L112.959 18.472H111.375V25H108.015V8.248H114.303C115.599 8.248 116.703 8.48 117.615 8.944C118.527 9.392 119.207 10.008 119.655 10.792C120.119 11.56 120.351 12.424 120.351 13.384C120.351 14.488 120.031 15.488 119.391 16.384C118.751 17.264 117.799 17.872 116.535 18.208L120.543 25H116.655ZM111.375 15.952H114.183C115.095 15.952 115.775 15.736 116.223 15.304C116.671 14.856 116.895 14.24 116.895 13.456C116.895 12.688 116.671 12.096 116.223 11.68C115.775 11.248 115.095 11.032 114.183 11.032H111.375V15.952ZM125.094 10.12C124.502 10.12 124.006 9.936 123.606 9.568C123.222 9.184 123.03 8.712 123.03 8.152C123.03 7.592 123.222 7.128 123.606 6.76C124.006 6.376 124.502 6.184 125.094 6.184C125.686 6.184 126.174 6.376 126.558 6.76C126.958 7.128 127.158 7.592 127.158 8.152C127.158 8.712 126.958 9.184 126.558 9.568C126.174 9.936 125.686 10.12 125.094 10.12ZM126.75 11.704V25H123.39V11.704H126.75ZM135.158 25.216C134.07 25.216 133.094 25.024 132.23 24.64C131.366 24.24 130.678 23.704 130.166 23.032C129.67 22.36 129.398 21.616 129.35 20.8H132.734C132.798 21.312 133.046 21.736 133.478 22.072C133.926 22.408 134.478 22.576 135.134 22.576C135.774 22.576 136.27 22.448 136.622 22.192C136.99 21.936 137.174 21.608 137.174 21.208C137.174 20.776 136.95 20.456 136.502 20.248C136.07 20.024 135.374 19.784 134.414 19.528C133.422 19.288 132.606 19.04 131.966 18.784C131.342 18.528 130.798 18.136 130.334 17.608C129.886 17.08 129.662 16.368 129.662 15.472C129.662 14.736 129.87 14.064 130.286 13.456C130.718 12.848 131.326 12.368 132.11 12.016C132.91 11.664 133.846 11.488 134.918 11.488C136.502 11.488 137.766 11.888 138.71 12.688C139.654 13.472 140.174 14.536 140.27 15.88H137.054C137.006 15.352 136.782 14.936 136.382 14.632C135.998 14.312 135.478 14.152 134.822 14.152C134.214 14.152 133.742 14.264 133.406 14.488C133.086 14.712 132.926 15.024 132.926 15.424C132.926 15.872 133.15 16.216 133.598 16.456C134.046 16.68 134.742 16.912 135.686 17.152C136.646 17.392 137.438 17.64 138.062 17.896C138.686 18.152 139.222 18.552 139.67 19.096C140.134 19.624 140.374 20.328 140.39 21.208C140.39 21.976 140.174 22.664 139.742 23.272C139.326 23.88 138.718 24.36 137.918 24.712C137.134 25.048 136.214 25.216 135.158 25.216ZM151.02 25L146.508 19.336V25H143.148V7.24H146.508V17.344L150.972 11.704H155.34L149.484 18.376L155.388 25H151.02ZM169.524 18.064C169.524 18.544 169.492 18.976 169.428 19.36H159.708C159.788 20.32 160.124 21.072 160.716 21.616C161.308 22.16 162.036 22.432 162.9 22.432C164.148 22.432 165.036 21.896 165.564 20.824H169.188C168.804 22.104 168.068 23.16 166.98 23.992C165.892 24.808 164.556 25.216 162.972 25.216C161.692 25.216 160.54 24.936 159.516 24.376C158.508 23.8 157.716 22.992 157.14 21.952C156.58 20.912 156.3 19.712 156.3 18.352C156.3 16.976 156.58 15.768 157.14 14.728C157.7 13.688 158.484 12.888 159.492 12.328C160.5 11.768 161.66 11.488 162.972 11.488C164.236 11.488 165.364 11.76 166.356 12.304C167.364 12.848 168.14 13.624 168.684 14.632C169.244 15.624 169.524 16.768 169.524 18.064ZM166.044 17.104C166.028 16.24 165.716 15.552 165.108 15.04C164.5 14.512 163.756 14.248 162.876 14.248C162.044 14.248 161.34 14.504 160.764 15.016C160.204 15.512 159.86 16.208 159.732 17.104H166.044ZM179.344 11.512C180.928 11.512 182.208 12.016 183.184 13.024C184.16 14.016 184.648 15.408 184.648 17.2V25H181.288V17.656C181.288 16.6 181.024 15.792 180.496 15.232C179.968 14.656 179.248 14.368 178.336 14.368C177.408 14.368 176.672 14.656 176.128 15.232C175.6 15.792 175.336 16.6 175.336 17.656V25H171.976V11.704H175.336V13.36C175.784 12.784 176.352 12.336 177.04 12.016C177.744 11.68 178.512 11.512 179.344 11.512Z" fill="white"/>
<defs>
<linearGradient id="paint0_linear_532_128" x1="9.80288" y1="0.400826" x2="19.5973" y2="30.0114" gradientUnits="userSpaceOnUse">
<stop stop-color="#FECB56"/>
<stop offset="1" stop-color="#D20C6E"/>
</linearGradient>
</defs>
</svg>
