<svg width="36" height="32" viewBox="0 0 36 32" fill="none" xmlns="http://www.w3.org/2000/svg">
<path d="M17.9843 19.2078C19.7554 19.2078 21.1912 17.772 21.1912 16.0009C21.1912 14.2297 19.7554 12.7939 17.9843 12.7939C16.2131 12.7939 14.7773 14.2297 14.7773 16.0009C14.7773 17.772 16.2131 19.2078 17.9843 19.2078Z" fill="white"/>
<path d="M9.0045 22.3779L8.29485 22.1964C3.02366 20.8652 0 18.6015 0 15.9946C0 13.386 3.02546 11.1241 8.29485 9.79278L9.0045 9.61312L9.20393 10.3156C9.73669 12.1548 10.4193 13.9472 11.2449 15.6748L11.3976 15.9946L11.2449 16.3144C10.4184 18.0445 9.73392 19.8375 9.20393 21.6772L9.0045 22.3779ZM7.96787 11.4277C3.96328 12.5559 1.50374 14.2771 1.50374 15.9946C1.50374 17.7086 3.96148 19.4315 7.96787 20.5579C8.45834 18.9985 9.05122 17.4732 9.73751 15.9946C9.04624 14.5136 8.45504 12.9878 7.96787 11.4277ZM26.9614 22.3779L26.7638 21.6736C26.2296 19.8341 25.5464 18.0412 24.7211 16.3126L24.5684 15.9946L24.7211 15.673C25.5475 13.9465 26.2284 12.1517 26.7638 10.312L26.9614 9.61133L27.6711 9.79099C32.9441 11.1223 35.9659 13.3842 35.9659 15.9946C35.9659 18.6033 32.9423 20.8652 27.6711 22.1964L26.9614 22.3779ZM26.2248 15.9946C26.9434 17.5505 27.5417 19.0811 27.998 20.5579C32.0044 19.4315 34.464 17.7086 34.464 15.9946C34.464 14.2771 32.0062 12.5577 27.998 11.4277C27.5081 12.9873 26.9157 14.513 26.2248 15.9946Z" fill="white"/>
<path d="M7.95794 11.4194L7.76032 10.7187C6.27634 5.49421 6.72548 1.75191 8.99457 0.447587C11.2134 -0.836974 14.7832 0.681144 18.5219 4.51686L19.0321 5.04147L18.5219 5.56427C17.194 6.94529 15.9803 8.43175 14.8928 10.009L14.6898 10.3001L14.3376 10.3288C12.4253 10.479 10.5284 10.7849 8.6658 11.2433L7.95794 11.4194ZM10.8001 1.48602C10.3977 1.48602 10.042 1.57405 9.74196 1.74652C8.25438 2.60349 7.99208 5.58763 9.01613 9.61558C10.6169 9.26165 12.232 9.00833 13.8597 8.8664C14.8021 7.52984 15.8301 6.25578 16.9373 5.05224C14.5963 2.77597 12.3865 1.48602 10.8001 1.48602ZM25.1675 31.9993C23.0331 31.9993 20.2915 30.3895 17.4457 27.4683L16.9373 26.9455L17.4457 26.4245C18.7738 25.0412 19.9881 23.553 21.0766 21.9743L21.2779 21.6869L21.6264 21.6527C23.5394 21.5052 25.437 21.2005 27.3 20.7419L28.0097 20.5622L28.2091 21.2647C29.6859 26.4856 29.2385 30.2332 26.973 31.5376C26.423 31.8494 25.7997 32.0087 25.1675 31.9993ZM19.0321 26.9329C21.3713 29.2092 23.5829 30.5009 25.1675 30.5009C25.5717 30.5009 25.9274 30.4111 26.2257 30.2404C27.715 29.3817 27.9791 26.3921 26.9515 22.3642C25.3525 22.7199 23.7356 22.975 22.1043 23.1169C21.1659 24.4556 20.1396 25.7304 19.0321 26.9329Z" fill="white"/>
<path d="M28.0081 11.4194L27.2985 11.2415C25.4355 10.7816 23.5379 10.4758 21.6249 10.327L21.2763 10.2965L21.0751 10.0055C19.9881 8.4273 18.7737 6.94075 17.4442 5.56069L16.9358 5.03788L17.4442 4.51687C21.1811 0.682951 24.7491 -0.835167 26.9715 0.447598C29.2388 1.75372 29.6897 5.49601 28.2076 10.7187L28.0081 11.4194ZM22.1027 8.86641C23.8167 9.01912 25.4408 9.27604 26.9499 9.61559C27.9758 5.58764 27.7135 2.6035 26.2241 1.74473C24.7437 0.887762 21.9572 2.19927 19.0306 5.05226C20.1373 6.25597 21.1649 7.52796 22.1027 8.86641ZM10.7986 31.9993C10.1664 32.0083 9.54326 31.849 8.99303 31.5376C6.72394 30.2332 6.27479 26.4874 7.75698 21.2647L7.95101 20.5622L8.66066 20.7419C10.3926 21.1784 12.3006 21.4857 14.3343 21.6527L14.6828 21.6869L14.8858 21.9743C15.971 23.5517 17.1855 25.0411 18.515 26.4245L19.0252 26.9455L18.515 27.4683C15.671 30.3913 12.9294 31.9993 10.7986 31.9993ZM9.01459 22.366C7.99054 26.3939 8.25284 29.3835 9.74041 30.2422C11.2226 31.0866 14.0001 29.7841 16.9358 26.9329C15.829 25.729 14.801 24.455 13.8582 23.1188C12.2289 22.9747 10.6108 22.7232 9.01459 22.366Z" fill="white"/>
<path d="M17.9836 23.3095C16.7494 23.3095 15.4828 23.2574 14.2108 23.1514L13.8587 23.1209L13.6557 22.8298C12.9384 21.7984 12.2635 20.7381 11.6327 19.6517C11.0066 18.5623 10.4246 17.4481 9.88822 16.3118L9.7373 15.9938L9.88822 15.6722C10.4254 14.5368 11.0057 13.4229 11.6327 12.3342C12.2561 11.2634 12.937 10.1926 13.6557 9.1542L13.8587 8.86675L14.2108 8.83441C16.7204 8.62421 19.2433 8.62421 21.7529 8.83441L22.1014 8.86854L22.3044 9.156C23.7413 11.2198 25.0033 13.4001 26.0773 15.674L26.2264 15.9956L26.0773 16.3136C25.0063 18.5891 23.7442 20.7696 22.3044 22.8316L22.1014 23.1227L21.7529 23.1532C20.4845 23.2556 19.2161 23.3095 17.9836 23.3095ZM14.6887 21.6854C16.9075 21.8525 19.0598 21.8525 21.2768 21.6854C22.5144 19.873 23.6146 17.9705 24.5681 15.9938C23.618 14.0153 22.5177 12.1126 21.2768 10.3022C19.084 10.1333 16.8815 10.1333 14.6887 10.3022C13.4468 12.1119 12.3464 14.0148 11.3974 15.9938C12.3529 17.9694 13.453 19.8718 14.6887 21.6854Z" fill="white"/>
</svg>
