<svg width="32" height="32" viewBox="0 0 32 32" fill="none" xmlns="http://www.w3.org/2000/svg">
<path d="M16 0C24.8352 0 32 7.1648 32 16C32 24.8352 24.8352 32 16 32C7.1648 32 0 24.8352 0 16C0 7.1648 7.1648 0 16 0ZM12.8208 21.3312C13.0544 22.1904 13.0288 22.9936 12.7872 23.72L12.7008 23.96C12.4987 24.4438 12.2133 24.8884 11.8576 25.2736C10.9264 26.2864 9.6272 26.6688 9.0704 26.3472C8.4704 25.9968 8.7696 24.568 9.8496 23.4272C11.0112 22.2032 12.6752 21.4144 12.6752 21.4144V21.4112L12.8208 21.3312ZM26.0336 6.8496C25.3104 4.0064 20.5984 3.0704 16.1376 4.656C13.488 5.5984 10.6128 7.08 8.5488 9.0128C6.0912 11.3072 5.7008 13.3072 5.8608 14.1424C6.4288 17.0912 10.4704 19.0192 12.1328 20.4496V20.4576C11.6416 20.696 8.056 22.496 7.2176 24.3584C6.3168 26.3184 7.3584 27.72 8.0384 27.8976C10.1392 28.4784 12.2976 27.4176 13.4592 25.6992C14.5776 24.0176 14.48 21.8592 13.9984 20.7984C14.6592 20.6192 15.4368 20.5392 16.4368 20.6608C19.2384 20.9792 19.7984 22.7408 19.6752 23.4608C19.5568 24.1792 18.9776 24.5984 18.7776 24.7184C18.576 24.84 18.5168 24.88 18.536 24.96C18.5568 25.0784 18.6576 25.0784 18.816 25.0608C19.0368 25.0208 20.2784 24.4608 20.3376 23.0976C20.3968 21.3792 18.7568 19.4608 15.8368 19.4976C14.6368 19.52 13.8752 19.6192 13.336 19.84C13.2996 19.7836 13.2516 19.7356 13.1952 19.6992C11.3952 17.7584 8.0544 16.3984 8.1952 13.8192C8.2352 12.8784 8.5744 10.4 14.5952 7.4C19.536 4.9392 23.4768 5.6208 24.1584 7.12C25.1344 9.2576 22.056 13.24 16.9168 13.8192C14.9568 14.04 13.9376 13.28 13.6752 12.9984C13.3968 12.6976 13.3584 12.6784 13.2576 12.7408C13.096 12.8208 13.1968 13.08 13.2576 13.2416C13.4176 13.64 14.0368 14.3424 15.1184 14.7008C16.0576 15.0016 18.3568 15.1792 21.1184 14.1008C24.2176 12.9024 26.6368 9.56 25.9376 6.76L26.0336 6.8496Z" fill="white"/>
</svg>
