<svg width="42" height="12" viewBox="0 0 42 12" fill="none" xmlns="http://www.w3.org/2000/svg">
<path d="M39.5098 3.36592C39.4567 2.86853 39.2326 2.48125 38.8378 2.20408C38.4467 1.92691 37.9379 1.78832 37.3114 1.78832C36.871 1.78832 36.4932 1.85477 36.1781 1.98766C35.8629 2.12055 35.6218 2.3009 35.4548 2.52871C35.2877 2.75653 35.2023 3.01661 35.1985 3.30897C35.1985 3.55197 35.2535 3.7627 35.3636 3.94115C35.4776 4.1196 35.6313 4.27148 35.825 4.39677C36.0186 4.51827 36.2331 4.62079 36.4685 4.70432C36.7039 4.78785 36.9412 4.85809 37.1804 4.91505L38.2739 5.18842C38.7144 5.29094 39.1377 5.42952 39.544 5.60418C39.954 5.77883 40.3204 5.99905 40.6432 6.26483C40.9697 6.53061 41.2279 6.85145 41.4177 7.22734C41.6076 7.60323 41.7025 8.04366 41.7025 8.54865C41.7025 9.23208 41.5278 9.83389 41.1785 10.3541C40.8292 10.8704 40.3242 11.2748 39.6636 11.5672C39.0067 11.8557 38.2113 12 37.2773 12C36.3698 12 35.582 11.8595 34.9137 11.5785C34.2493 11.2976 33.7291 10.8875 33.3532 10.3484C32.9811 9.80921 32.7799 9.15235 32.7495 8.37779H34.8283C34.8587 8.78405 34.984 9.12198 35.2042 9.39155C35.4244 9.66113 35.7111 9.86236 36.0642 9.99525C36.4211 10.1281 36.8197 10.1946 37.2602 10.1946C37.7196 10.1946 38.1221 10.1262 38.4676 9.98956C38.8169 9.84908 39.0903 9.65543 39.2877 9.40864C39.4851 9.15805 39.5858 8.86569 39.5896 8.53156C39.5858 8.22781 39.4965 7.97722 39.3219 7.77978C39.1472 7.57855 38.9023 7.41149 38.5872 7.2786C38.2758 7.14191 37.9113 7.02041 37.4937 6.9141L36.1667 6.57238C35.2061 6.32558 34.4467 5.95159 33.8886 5.4504C33.3342 4.94542 33.0571 4.27527 33.0571 3.43996C33.0571 2.75273 33.2431 2.15093 33.6152 1.63455C33.9911 1.11818 34.5018 0.717608 35.1472 0.432843C35.7927 0.144281 36.5236 0 37.3399 0C38.1676 0 38.8928 0.144281 39.5155 0.432843C40.142 0.717608 40.6337 1.11438 40.9906 1.62316C41.3475 2.12814 41.5316 2.70907 41.543 3.36592H39.5098Z" fill="white"/>
<path d="M29.0943 3.36592C29.0411 2.86853 28.8171 2.48125 28.4222 2.20408C28.0312 1.92691 27.5224 1.78832 26.8959 1.78832C26.4555 1.78832 26.0777 1.85477 25.7625 1.98766C25.4474 2.12055 25.2063 2.3009 25.0392 2.52871C24.8722 2.75653 24.7868 3.01661 24.783 3.30897C24.783 3.55197 24.838 3.7627 24.9481 3.94115C25.062 4.1196 25.2158 4.27148 25.4094 4.39677C25.6031 4.51827 25.8176 4.62079 26.053 4.70432C26.2884 4.78785 26.5257 4.85809 26.7649 4.91505L27.8584 5.18842C28.2988 5.29094 28.7222 5.42952 29.1285 5.60418C29.5385 5.77883 29.9049 5.99905 30.2277 6.26483C30.5542 6.53061 30.8124 6.85145 31.0022 7.22734C31.1921 7.60323 31.287 8.04366 31.287 8.54865C31.287 9.23208 31.1123 9.83389 30.763 10.3541C30.4137 10.8704 29.9087 11.2748 29.2481 11.5672C28.5912 11.8557 27.7958 12 26.8617 12C25.9543 12 25.1664 11.8595 24.4982 11.5785C23.8337 11.2976 23.3136 10.8875 22.9377 10.3484C22.5656 9.80921 22.3644 9.15235 22.334 8.37779H24.4128C24.4431 8.78405 24.5684 9.12198 24.7887 9.39155C25.0089 9.66113 25.2955 9.86236 25.6486 9.99525C26.0055 10.1281 26.4042 10.1946 26.8447 10.1946C27.3041 10.1946 27.7065 10.1262 28.0521 9.98956C28.4014 9.84908 28.6747 9.65543 28.8722 9.40864C29.0696 9.15805 29.1702 8.86569 29.174 8.53156C29.1702 8.22781 29.081 7.97722 28.9063 7.77978C28.7317 7.57855 28.4868 7.41149 28.1717 7.2786C27.8603 7.14191 27.4958 7.02041 27.0782 6.9141L25.7512 6.57238C24.7906 6.32558 24.0312 5.95159 23.473 5.4504C22.9187 4.94542 22.6415 4.27527 22.6415 3.43996C22.6415 2.75273 22.8276 2.15093 23.1997 1.63455C23.5756 1.11818 24.0862 0.717608 24.7317 0.432843C25.3772 0.144281 26.1081 0 26.9244 0C27.7521 0 28.4773 0.144281 29.1 0.432843C29.7265 0.717608 30.2182 1.11438 30.5751 1.62316C30.932 2.12814 31.1161 2.70907 31.1275 3.36592H29.0943Z" fill="white"/>
<path d="M20.8205 4.09492H18.6905C18.6297 3.74561 18.5177 3.43617 18.3545 3.16659C18.1912 2.89321 17.9881 2.6616 17.7451 2.47176C17.5021 2.28192 17.2249 2.13953 16.9136 2.04461C16.606 1.9459 16.2738 1.89654 15.9169 1.89654C15.2828 1.89654 14.7209 2.056 14.2311 2.37494C13.7413 2.69008 13.3578 3.1533 13.0806 3.76459C12.8035 4.37209 12.6649 5.11438 12.6649 5.99146C12.6649 6.88372 12.8035 7.6355 13.0806 8.2468C13.3616 8.8543 13.7451 9.31372 14.2311 9.62506C14.7209 9.93261 15.2809 10.0864 15.9112 10.0864C16.2605 10.0864 16.587 10.0408 16.8908 9.94969C17.1983 9.85477 17.4736 9.71618 17.7166 9.53394C17.9634 9.35169 18.1703 9.12767 18.3374 8.86189C18.5082 8.59611 18.6259 8.29236 18.6905 7.95064L20.8205 7.96203C20.7408 8.51637 20.568 9.03655 20.3023 9.52254C20.0403 10.0085 19.6967 10.4376 19.2714 10.8097C18.8462 11.178 18.3488 11.4665 17.7792 11.6754C17.2097 11.8804 16.5775 11.9829 15.8827 11.9829C14.8576 11.9829 13.9425 11.7456 13.1376 11.271C12.3326 10.7964 11.6986 10.1111 11.2354 9.215C10.7721 8.31894 10.5405 7.24442 10.5405 5.99146C10.5405 4.73469 10.774 3.66018 11.241 2.76792C11.7081 1.87186 12.344 1.18652 13.149 0.711912C13.9539 0.237304 14.8651 0 15.8827 0C16.532 0 17.1357 0.0911247 17.6938 0.273374C18.2519 0.455624 18.7493 0.723304 19.186 1.07641C19.6226 1.42572 19.9814 1.85477 20.2624 2.36355C20.5471 2.86853 20.7332 3.44566 20.8205 4.09492Z" fill="white"/>
<path d="M6.76031 3.36592C6.70715 2.86853 6.48314 2.48125 6.08826 2.20408C5.69719 1.92691 5.18841 1.78832 4.56193 1.78832C4.12149 1.78832 3.7437 1.85477 3.42856 1.98766C3.11342 2.12055 2.87232 2.3009 2.70526 2.52871C2.5382 2.75653 2.45277 3.01661 2.44897 3.30897C2.44897 3.55197 2.50403 3.7627 2.61414 3.94115C2.72804 4.1196 2.88182 4.27148 3.07546 4.39677C3.2691 4.51827 3.48362 4.62079 3.71902 4.70432C3.95443 4.78785 4.19173 4.85809 4.43093 4.91505L5.52443 5.18842C5.96486 5.29094 6.38821 5.42952 6.79448 5.60418C7.20454 5.77883 7.57094 5.99905 7.89367 6.26483C8.2202 6.53061 8.47838 6.85145 8.66823 7.22734C8.85807 7.60323 8.95299 8.04366 8.95299 8.54865C8.95299 9.23208 8.77834 9.83389 8.42903 10.3541C8.07971 10.8704 7.57473 11.2748 6.91408 11.5672C6.25722 11.8557 5.46178 12 4.52775 12C3.6203 12 2.83246 11.8595 2.16421 11.5785C1.49976 11.2976 0.979589 10.8875 0.6037 10.3484C0.231608 9.80921 0.0303749 9.15235 0 8.37779H2.07878C2.10916 8.78405 2.23445 9.12198 2.45467 9.39155C2.67489 9.66113 2.96155 9.86236 3.31466 9.99525C3.67156 10.1281 4.07023 10.1946 4.51067 10.1946C4.97009 10.1946 5.37255 10.1262 5.71807 9.98956C6.06738 9.84908 6.34075 9.65543 6.53819 9.40864C6.73563 9.15805 6.83624 8.86569 6.84004 8.53156C6.83624 8.22781 6.74702 7.97722 6.57236 7.77978C6.39771 7.57855 6.15281 7.41149 5.83767 7.2786C5.52633 7.14191 5.16183 7.02041 4.74417 6.9141L3.41717 6.57238C2.45657 6.32558 1.6972 5.95159 1.13906 5.4504C0.584716 4.94542 0.307546 4.27527 0.307546 3.43996C0.307546 2.75273 0.493592 2.15093 0.865684 1.63455C1.24157 1.11818 1.75225 0.717608 2.39772 0.432843C3.04318 0.144281 3.77408 0 4.5904 0C5.41812 0 6.14332 0.144281 6.766 0.432843C7.39248 0.717608 7.88418 1.11438 8.24108 1.62316C8.59799 2.12814 8.78213 2.70907 8.79352 3.36592H6.76031Z" fill="white"/>
</svg>
