<svg width="32" height="32" viewBox="0 0 32 32" fill="none" xmlns="http://www.w3.org/2000/svg">
<path d="M16 6.48047C11.7689 6.48047 9.12441 8.59602 8.06663 12.8271C9.6533 10.7116 11.5044 9.91825 13.62 10.4471C14.8266 10.7485 15.6893 11.6245 16.644 12.5938C18.2013 14.1738 20 16.0005 23.9333 16.0005C28.1644 16.0005 30.8089 13.8849 31.8666 9.6538C30.28 11.7694 28.4289 12.5627 26.3133 12.0338C25.1053 11.7325 24.244 10.8565 23.2866 9.88714C21.7333 8.30714 19.9333 6.48047 16 6.48047ZM8.06663 16.0005C3.83552 16.0005 1.19108 18.116 0.133301 22.3471C1.71997 20.2316 3.57108 19.4382 5.68663 19.9671C6.8933 20.2685 7.75597 21.1445 8.71197 22.1138C10.2666 23.6938 12.0666 25.5205 16 25.5205C20.2311 25.5205 22.8755 23.4049 23.9333 19.1738C22.3466 21.2894 20.4955 22.0827 18.38 21.5538C17.172 21.2525 16.3106 20.3765 15.3533 19.4071C13.8 17.8271 12 16.0005 8.06663 16.0005Z" fill="white"/>
</svg>
