<svg width="55" height="32" viewBox="0 0 55 32" fill="none" xmlns="http://www.w3.org/2000/svg">
<path d="M45.375 9.37303C43.3127 8.68561 41.4922 7.44959 40.1225 5.80671C38.6129 3.97627 36.6907 2.50424 34.5029 1.50324C32.3151 0.502239 29.9197 -0.00121047 27.5 0.0314039C24.245 -0.191689 21.0226 0.779918 18.4745 2.75274C15.9264 4.72556 14.2396 7.55483 13.75 10.6771C14.7144 9.11552 16.1658 7.89026 17.8953 7.17767C19.6249 6.46507 21.5435 6.30189 23.375 6.7116C25.4339 7.41903 27.2514 8.66224 28.6275 10.3045C30.1454 12.1204 32.0713 13.5772 34.2586 14.5641C36.4459 15.5511 38.837 16.0422 41.25 16C44.505 16.2231 47.7274 15.2515 50.2755 13.2787C52.8236 11.3058 54.5104 8.47657 55 5.35427C54.0532 6.93455 52.6064 8.17832 50.8733 8.90196C49.1401 9.6256 47.2125 9.79075 45.375 9.37303ZM9.625 22.627C11.6874 23.3144 13.5078 24.5504 14.8775 26.1933C16.3871 28.0237 18.3093 29.4958 20.4971 30.4968C22.6849 31.4978 25.0803 32.0012 27.5 31.9686C30.755 32.1917 33.9774 31.2201 36.5255 29.2473C39.0736 27.2744 40.7604 24.4452 41.25 21.3229C40.2857 22.8845 38.8343 24.1097 37.1047 24.8223C35.3751 25.5349 33.4565 25.6981 31.625 25.2884C29.5661 24.581 27.7486 23.3378 26.3725 21.6955C24.8505 19.8841 22.9239 18.4305 20.7375 17.444C18.5511 16.4575 16.162 15.9638 13.75 16C10.495 15.7769 7.2726 16.7485 4.72452 18.7213C2.17643 20.6942 0.489616 23.5234 0 26.6457C0.946844 25.0654 2.39362 23.8217 4.12674 23.098C5.85986 22.3744 7.78748 22.2093 9.625 22.627Z" fill="white"/>
</svg>
