<svg width="32" height="32" viewBox="0 0 32 32" fill="none" xmlns="http://www.w3.org/2000/svg">
<path d="M28.8711 0H3.12889C2.29906 0 1.50321 0.32965 0.91643 0.91643C0.32965 1.50321 0 2.29906 0 3.12889V28.8711C0 29.7009 0.32965 30.4968 0.91643 31.0836C1.50321 31.6704 2.29906 32 3.12889 32H28.8711C29.282 32 29.6889 31.9191 30.0685 31.7618C30.4481 31.6046 30.793 31.3741 31.0836 31.0836C31.3741 30.793 31.6046 30.4481 31.7618 30.0685C31.9191 29.6889 32 29.282 32 28.8711V3.12889C32 2.718 31.9191 2.31113 31.7618 1.93152C31.6046 1.5519 31.3741 1.20697 31.0836 0.91643C30.793 0.625886 30.4481 0.395414 30.0685 0.238172C29.6889 0.0809309 29.282 0 28.8711 0ZM18.56 17.7778H14.56V29.2267H11.3778V17.7778H7.37778V15.1822H18.56V17.7778ZM28.8711 27.1644C28.6138 27.7117 28.199 28.1697 27.68 28.48C27.1339 28.8161 26.5317 29.051 25.9022 29.1733C25.2004 29.3183 24.4855 29.3898 23.7689 29.3867C23.0357 29.386 22.3039 29.3206 21.5822 29.1911C20.9688 29.0655 20.3722 28.8686 19.8044 28.6044V25.5644L19.6978 25.4578H19.8044V25.5822C20.3392 25.9994 20.9401 26.3239 21.5822 26.5422C22.2234 26.7864 22.9051 26.907 23.5911 26.8978C23.9496 26.904 24.3076 26.8682 24.6578 26.7911C24.9208 26.7296 25.1727 26.6276 25.4044 26.4889C25.5859 26.3783 25.7383 26.2259 25.8489 26.0444C25.9584 25.8378 26.0065 25.6042 25.9876 25.3711C25.9687 25.138 25.8835 24.9152 25.7422 24.7289C25.5751 24.4946 25.3637 24.2953 25.12 24.1422C24.8241 23.9341 24.5085 23.7555 24.1778 23.6089L22.9867 23.1111C22.0438 22.7228 21.2084 22.113 20.5511 21.3333C20.0011 20.6703 19.7105 19.8301 19.7333 18.9689C19.7126 18.3146 19.8595 17.666 20.16 17.0844C20.4468 16.5776 20.8487 16.1452 21.3333 15.8222C21.8733 15.463 22.4766 15.2096 23.1111 15.0756C23.8048 14.9159 24.5149 14.8383 25.2267 14.8444C25.8748 14.8354 26.5227 14.877 27.1644 14.9689C27.6983 15.0524 28.2224 15.1893 28.7289 15.3778V18.3111C28.4949 18.1443 28.2447 18.0014 27.9822 17.8844C27.6995 17.7628 27.4084 17.6618 27.1111 17.5822C26.8262 17.4988 26.5348 17.4394 26.24 17.4044C25.968 17.3788 25.6942 17.3788 25.4222 17.4044C25.0872 17.3989 24.7529 17.4347 24.4267 17.5111C24.1591 17.5672 23.9014 17.6631 23.6622 17.7956C23.4755 17.9056 23.3172 18.0578 23.2 18.24C23.0936 18.4171 23.0382 18.6201 23.04 18.8267C23.0357 19.0472 23.0976 19.2639 23.2178 19.4489C23.3638 19.6508 23.5444 19.8253 23.7511 19.9644C24.0018 20.164 24.2765 20.3312 24.5689 20.4622L25.6889 20.96C26.2039 21.1729 26.7029 21.4224 27.1822 21.7067C27.6037 21.9373 27.9874 22.2311 28.32 22.5778C28.6459 22.8936 28.9005 23.2755 29.0667 23.6978C29.2371 24.1831 29.3214 24.6945 29.3156 25.2089C29.3028 25.8729 29.1515 26.5269 28.8711 27.1289V27.1644Z" fill="white"/>
</svg>
