<svg width="21" height="12" viewBox="0 0 21 12" fill="none" xmlns="http://www.w3.org/2000/svg">
<path d="M17.9165 3.36592C17.8633 2.86853 17.6393 2.48125 17.2445 2.20408C16.8534 1.92691 16.3446 1.78832 15.7181 1.78832C15.2777 1.78832 14.8999 1.85477 14.5848 1.98766C14.2696 2.12055 14.0285 2.3009 13.8615 2.52871C13.6944 2.75653 13.609 3.01661 13.6052 3.30897C13.6052 3.55197 13.6603 3.7627 13.7704 3.94115C13.8843 4.1196 14.038 4.27148 14.2317 4.39677C14.4253 4.51827 14.6398 4.62079 14.8752 4.70432C15.1106 4.78785 15.3479 4.85809 15.5871 4.91505L16.6806 5.18842C17.1211 5.29094 17.5444 5.42952 17.9507 5.60418C18.3607 5.77883 18.7271 5.99905 19.0498 6.26483C19.3764 6.53061 19.6346 6.85145 19.8244 7.22734C20.0142 7.60323 20.1092 8.04366 20.1092 8.54865C20.1092 9.23208 19.9345 9.83389 19.5852 10.3541C19.2359 10.8704 18.7309 11.2748 18.0703 11.5672C17.4134 11.8557 16.618 12 15.684 12C14.7765 12 13.9887 11.8595 13.3204 11.5785C12.656 11.2976 12.1358 10.8875 11.7599 10.3484C11.3879 9.80921 11.1866 9.15235 11.1562 8.37779H13.235C13.2654 8.78405 13.3907 9.12198 13.6109 9.39155C13.8311 9.66113 14.1178 9.86236 14.4709 9.99525C14.8278 10.1281 15.2264 10.1946 15.6669 10.1946C16.1263 10.1946 16.5288 10.1262 16.8743 9.98956C17.2236 9.84908 17.4969 9.65543 17.6944 9.40864C17.8918 9.15805 17.9924 8.86569 17.9962 8.53156C17.9924 8.22781 17.9032 7.97722 17.7285 7.77978C17.5539 7.57855 17.309 7.41149 16.9939 7.2786C16.6825 7.14191 16.318 7.02041 15.9004 6.9141L14.5734 6.57238C13.6128 6.32558 12.8534 5.95159 12.2953 5.4504C11.741 4.94542 11.4638 4.27527 11.4638 3.43996C11.4638 2.75273 11.6498 2.15093 12.0219 1.63455C12.3978 1.11818 12.9085 0.717608 13.5539 0.432843C14.1994 0.144281 14.9303 0 15.7466 0C16.5743 0 17.2995 0.144281 17.9222 0.432843C18.5487 0.717608 19.0403 1.11438 19.3972 1.62316C19.7542 2.12814 19.9383 2.70907 19.9497 3.36592H17.9165Z" fill="white"/>
<path d="M0.477051 1.93042V0.15918H9.78306V1.93042H6.17798V11.8232H4.08213V1.93042H0.477051Z" fill="white"/>
</svg>
